<mxfile host="app.diagrams.net" modified="2024-02-23T07:57:19.854Z" agent="Mozilla/5.0 (Windows NT 10.0; Win64; x64; rv:122.0) Gecko/20100101 Firefox/122.0" etag="FNK04_NaZbA67hda5I7Q" version="23.1.5" type="device">
  <diagram name="Page-1" id="wrd5cXtLvHTm1nzKi-Ud">
    <mxGraphModel dx="1050" dy="566" grid="1" gridSize="10" guides="1" tooltips="1" connect="1" arrows="1" fold="1" page="1" pageScale="1" pageWidth="850" pageHeight="1100" math="0" shadow="0">
      <root>
        <mxCell id="0" />
        <mxCell id="1" parent="0" />
        <mxCell id="wJpr0QAyEBjXq9etcN4L-8" style="edgeStyle=orthogonalEdgeStyle;rounded=0;orthogonalLoop=1;jettySize=auto;html=1;exitX=0.5;exitY=1;exitDx=0;exitDy=0;exitPerimeter=0;entryX=0.5;entryY=0;entryDx=0;entryDy=0;" edge="1" parent="1" source="wJpr0QAyEBjXq9etcN4L-1" target="wJpr0QAyEBjXq9etcN4L-3">
          <mxGeometry relative="1" as="geometry" />
        </mxCell>
        <mxCell id="wJpr0QAyEBjXq9etcN4L-1" value="" style="strokeWidth=2;html=1;shape=mxgraph.flowchart.start_2;whiteSpace=wrap;" vertex="1" parent="1">
          <mxGeometry x="370" y="240" width="100" height="100" as="geometry" />
        </mxCell>
        <mxCell id="wJpr0QAyEBjXq9etcN4L-2" value="" style="strokeWidth=2;html=1;shape=mxgraph.flowchart.start_2;whiteSpace=wrap;" vertex="1" parent="1">
          <mxGeometry x="360" y="720" width="100" height="100" as="geometry" />
        </mxCell>
        <mxCell id="wJpr0QAyEBjXq9etcN4L-6" style="edgeStyle=orthogonalEdgeStyle;rounded=0;orthogonalLoop=1;jettySize=auto;html=1;exitX=0;exitY=1;exitDx=0;exitDy=0;entryX=0.5;entryY=0;entryDx=0;entryDy=0;" edge="1" parent="1" source="wJpr0QAyEBjXq9etcN4L-3" target="wJpr0QAyEBjXq9etcN4L-4">
          <mxGeometry relative="1" as="geometry" />
        </mxCell>
        <mxCell id="wJpr0QAyEBjXq9etcN4L-7" style="edgeStyle=orthogonalEdgeStyle;rounded=0;orthogonalLoop=1;jettySize=auto;html=1;exitX=1;exitY=1;exitDx=0;exitDy=0;entryX=0.5;entryY=0;entryDx=0;entryDy=0;" edge="1" parent="1" source="wJpr0QAyEBjXq9etcN4L-3" target="wJpr0QAyEBjXq9etcN4L-5">
          <mxGeometry relative="1" as="geometry" />
        </mxCell>
        <mxCell id="wJpr0QAyEBjXq9etcN4L-3" value="" style="rounded=1;whiteSpace=wrap;html=1;absoluteArcSize=1;arcSize=14;strokeWidth=2;" vertex="1" parent="1">
          <mxGeometry x="320" y="370" width="200" height="100" as="geometry" />
        </mxCell>
        <mxCell id="wJpr0QAyEBjXq9etcN4L-4" value="" style="rounded=1;whiteSpace=wrap;html=1;absoluteArcSize=1;arcSize=14;strokeWidth=2;" vertex="1" parent="1">
          <mxGeometry x="120" y="550" width="180" height="100" as="geometry" />
        </mxCell>
        <mxCell id="wJpr0QAyEBjXq9etcN4L-5" value="" style="rounded=1;whiteSpace=wrap;html=1;absoluteArcSize=1;arcSize=14;strokeWidth=2;" vertex="1" parent="1">
          <mxGeometry x="510" y="550" width="230" height="100" as="geometry" />
        </mxCell>
        <mxCell id="wJpr0QAyEBjXq9etcN4L-9" style="edgeStyle=orthogonalEdgeStyle;rounded=0;orthogonalLoop=1;jettySize=auto;html=1;exitX=0.5;exitY=1;exitDx=0;exitDy=0;entryX=0.855;entryY=0.145;entryDx=0;entryDy=0;entryPerimeter=0;" edge="1" parent="1" source="wJpr0QAyEBjXq9etcN4L-5" target="wJpr0QAyEBjXq9etcN4L-2">
          <mxGeometry relative="1" as="geometry" />
        </mxCell>
        <mxCell id="wJpr0QAyEBjXq9etcN4L-10" style="edgeStyle=orthogonalEdgeStyle;rounded=0;orthogonalLoop=1;jettySize=auto;html=1;exitX=0.5;exitY=1;exitDx=0;exitDy=0;entryX=0.145;entryY=0.145;entryDx=0;entryDy=0;entryPerimeter=0;" edge="1" parent="1" source="wJpr0QAyEBjXq9etcN4L-4" target="wJpr0QAyEBjXq9etcN4L-2">
          <mxGeometry relative="1" as="geometry" />
        </mxCell>
        <mxCell id="wJpr0QAyEBjXq9etcN4L-11" value="Playing" style="text;html=1;align=center;verticalAlign=middle;whiteSpace=wrap;rounded=0;" vertex="1" parent="1">
          <mxGeometry x="340" y="390" width="150" height="60" as="geometry" />
        </mxCell>
        <mxCell id="wJpr0QAyEBjXq9etcN4L-12" value="Victory" style="text;html=1;align=center;verticalAlign=middle;whiteSpace=wrap;rounded=0;" vertex="1" parent="1">
          <mxGeometry x="160" y="570" width="100" height="60" as="geometry" />
        </mxCell>
        <mxCell id="wJpr0QAyEBjXq9etcN4L-13" value="defeat" style="text;html=1;align=center;verticalAlign=middle;whiteSpace=wrap;rounded=0;" vertex="1" parent="1">
          <mxGeometry x="530" y="570" width="180" height="60" as="geometry" />
        </mxCell>
        <mxCell id="wJpr0QAyEBjXq9etcN4L-14" style="edgeStyle=orthogonalEdgeStyle;rounded=0;orthogonalLoop=1;jettySize=auto;html=1;exitX=0.75;exitY=0;exitDx=0;exitDy=0;entryX=1;entryY=0.5;entryDx=0;entryDy=0;" edge="1" parent="1" source="wJpr0QAyEBjXq9etcN4L-3" target="wJpr0QAyEBjXq9etcN4L-3">
          <mxGeometry relative="1" as="geometry" />
        </mxCell>
        <mxCell id="wJpr0QAyEBjXq9etcN4L-16" value="Nedorazil do ciela alebo nebol zabity" style="text;html=1;align=center;verticalAlign=middle;whiteSpace=wrap;rounded=0;" vertex="1" parent="1">
          <mxGeometry x="540" y="330" width="100" height="70" as="geometry" />
        </mxCell>
        <mxCell id="wJpr0QAyEBjXq9etcN4L-17" value="Dorazil do ciela" style="text;html=1;align=center;verticalAlign=middle;whiteSpace=wrap;rounded=0;" vertex="1" parent="1">
          <mxGeometry x="230" y="480" width="60" height="30" as="geometry" />
        </mxCell>
        <mxCell id="wJpr0QAyEBjXq9etcN4L-18" value="Bol zabity" style="text;html=1;align=center;verticalAlign=middle;whiteSpace=wrap;rounded=0;" vertex="1" parent="1">
          <mxGeometry x="595" y="480" width="60" height="30" as="geometry" />
        </mxCell>
        <mxCell id="wJpr0QAyEBjXq9etcN4L-19" value="Začiatok" style="text;html=1;align=center;verticalAlign=middle;whiteSpace=wrap;rounded=0;" vertex="1" parent="1">
          <mxGeometry x="390" y="200" width="60" height="30" as="geometry" />
        </mxCell>
        <mxCell id="wJpr0QAyEBjXq9etcN4L-20" value="Koniec" style="text;html=1;align=center;verticalAlign=middle;whiteSpace=wrap;rounded=0;" vertex="1" parent="1">
          <mxGeometry x="380" y="830" width="60" height="30" as="geometry" />
        </mxCell>
      </root>
    </mxGraphModel>
  </diagram>
</mxfile>
